<?xml version="1.0" encoding="UTF-8" standalone="no"?>
<!-- Created with Inkscape (http://www.inkscape.org/) -->

<svg
   width="135.93188mm"
   height="117.4747mm"
   viewBox="0 0 135.93188 117.4747"
   version="1.1"
   id="svg1"
   xml:space="preserve"
   inkscape:version="1.3 (0e150ed6c4, 2023-07-21)"
   sodipodi:docname="favicon.svg"
   xmlns:inkscape="http://www.inkscape.org/namespaces/inkscape"
   xmlns:sodipodi="http://sodipodi.sourceforge.net/DTD/sodipodi-0.dtd"
   xmlns="http://www.w3.org/2000/svg"
   xmlns:svg="http://www.w3.org/2000/svg"><sodipodi:namedview
     id="namedview1"
     pagecolor="#ffffff"
     bordercolor="#000000"
     borderopacity="0.25"
     inkscape:showpageshadow="2"
     inkscape:pageopacity="0.0"
     inkscape:pagecheckerboard="0"
     inkscape:deskcolor="#d1d1d1"
     inkscape:document-units="mm"
     inkscape:zoom="0.20535659"
     inkscape:cx="177.73961"
     inkscape:cy="822.95875"
     inkscape:window-width="1440"
     inkscape:window-height="890"
     inkscape:window-x="1247"
     inkscape:window-y="1433"
     inkscape:window-maximized="1"
     inkscape:current-layer="layer1" /><defs
     id="defs1" /><g
     inkscape:label="Layer 1"
     inkscape:groupmode="layer"
     id="layer1"
     transform="translate(-25.055335,-80.940066)"><path
       style="fill:#4b7d67;stroke-width:0.5;fill-opacity:1"
       d="m 25.055335,198.34657 c 0,-0.0371 0.05683,-0.17081 0.12629,-0.29715 0.1177,-0.21409 0.57413,-1.2827 1.793255,-4.19846 0.273805,-0.65485 0.885195,-2.0836 1.358645,-3.175 0.473455,-1.09141 1.29322,-3.05594 1.8217,-4.36563 2.156055,-5.34317 2.64529,-6.31924 4.03935,-8.05888 1.00553,-1.25479 2.304115,-2.22212 4.1764,-3.11102 l 0.667295,-0.31681 0.151355,-3.91393 c 0.08325,-2.15267 0.16666,-5.61058 0.18536,-7.68425 l 0.034,-3.77032 -7.09034,0.0533 c -5.262595,0.0396 -7.114645,0.014 -7.18463,-0.0992 -0.05186,-0.0839 -0.0426,-0.15256 0.02055,-0.15256 0.14546,0 0.613855,-0.67478 4.13232,-5.95313 3.89191,-5.83858 4.499695,-6.77298 4.499695,-6.9178 0,-0.0769 -1.07112,-0.0871 -2.804025,-0.0266 l -2.804025,0.0979 0.250485,-0.38011 c 0.137765,-0.20906 0.70457,-1.09449 1.259565,-1.96761 0.554995,-0.87313 1.337445,-2.09352 1.73878,-2.71198 0.401335,-0.61847 1.459395,-2.28534 2.35124,-3.70417 0.89185,-1.41883 1.73474,-2.74099 1.873095,-2.93813 0.138355,-0.19715 0.251555,-0.39334 0.251555,-0.43598 0,-0.0426 -1.01211,-0.0599 -2.24913,-0.0384 -1.23702,0.0215 -2.24905,5e-4 -2.24896,-0.0465 1.75e-4,-0.0873 1.837595,-3.13474 3.258565,-5.40451 0.432735,-0.69122 1.040485,-1.72081 1.35056,-2.28796 0.310075,-0.56716 0.739365,-1.30807 0.953975,-1.64648 0.214605,-0.3384 0.390195,-0.67232 0.390195,-0.74204 0,-0.079 -0.697875,-0.0935 -1.85208,-0.0383 -1.21933,0.0582 -1.852085,0.0427 -1.852085,-0.0455 0,-0.16036 0.643255,-1.32904 3.569135,-6.4845 1.21817,-2.14643 2.708595,-4.78069 3.312065,-5.8539 0.60347,-1.07322 1.133855,-1.95131 1.178635,-1.95131 0.0448,0 0.43443,0.63996 0.865885,1.42214 0.431455,0.78217 0.916,1.63565 1.076765,1.89661 0.16076,0.26097 0.545995,0.94558 0.856075,1.52136 0.565905,1.05083 1.561875,2.79863 2.368085,4.15573 0.570995,0.96114 2.912935,5.26123 2.912935,5.34849 0,0.0375 -0.83455,0.0847 -1.854565,0.1049 l -1.854565,0.0367 1.898415,3.175 c 1.044125,1.74625 2.32978,3.90492 2.857005,4.79705 0.527225,0.89212 1.00332,1.5944 1.057985,1.56061 0.05467,-0.0338 0.59798,-0.70417 1.207355,-1.48975 2.60323,-3.35597 4.19501,-5.37777 5.588385,-7.09808 1.384945,-1.70992 2.037315,-2.54945 5.843625,-7.52012 0.79658,-1.04025 2.22757,-2.87364 3.179985,-4.07418 0.952415,-1.20055 2.503325,-3.1806 3.44647,-4.40011 0.94314,-1.2195 2.14445,-2.76732 2.669575,-3.43958 0.525125,-0.67226 1.83443,-2.38315 2.90956,-3.80198 1.075135,-1.41883 2.404315,-3.145234 2.953735,-3.836458 0.961505,-1.209664 1.618155,-2.057731 5.36014,-6.922654 0.94183,-1.224465 2.30773,-2.980715 3.035335,-3.902778 0.7276,-0.922062 2.02054,-2.599133 2.873195,-3.726824 1.652165,-2.185092 2.02344,-2.64566 2.132735,-2.64566 0.0378,0 0.50451,0.575422 1.037125,1.278715 2.95539,3.902422 4.94415,6.482179 6.459135,8.378576 0.5522,0.691224 1.9537,2.496397 3.11445,4.011495 1.16074,1.515099 3.08164,4.015411 4.26865,5.556248 1.18702,1.54084 2.70759,3.5159 3.37905,4.38903 1.17557,1.52863 8.10728,10.44274 11.12513,14.30681 0.80386,1.02926 1.87829,2.42006 2.38761,3.09065 0.50932,0.67059 1.55112,2.00826 2.31511,2.9726 2.66768,3.36729 4.71489,5.96678 5.82109,7.39147 l 1.11459,1.4355 0.27952,-0.35055 c 0.31211,-0.39143 4.18503,-6.70336 5.04394,-8.22042 l 0.55134,-0.9738 -1.8929,-0.0366 -1.8929,-0.0365 1.28868,-2.31511 c 0.70877,-1.2733 2.08867,-3.71408 3.06643,-5.42395 0.97777,-1.70987 2.21714,-3.89765 2.75416,-4.86172 0.53702,-0.96408 1.01098,-1.75258 1.05325,-1.75223 0.0422,3.5e-4 0.66922,1.0868 1.39322,2.41432 0.72401,1.32753 1.55172,2.80064 1.83938,3.27358 1.52122,2.50112 4.8479,8.41083 4.8479,8.6121 0,0.0655 -0.83981,0.11915 -1.86624,0.11915 -1.60715,0 -1.85563,0.0276 -1.78984,0.19907 0.042,0.10949 1.38572,2.37168 2.98602,5.02708 l 2.90963,4.82802 h -2.24426 c -1.23435,0 -2.24427,0.0287 -2.24427,0.0638 0,0.085 0.81316,1.40398 1.91804,3.11118 0.49445,0.76398 1.09086,1.68672 1.32537,2.05052 0.2345,0.3638 1.26702,1.95921 2.29449,3.54534 1.02747,1.58613 1.93388,3.00675 2.01426,3.15693 l 0.14613,0.27305 -2.72466,-0.0973 c -1.8681,-0.0667 -2.72467,-0.0538 -2.72467,0.0409 0,0.32283 4.16457,6.73398 7.53639,11.60189 0.50399,0.72761 0.91947,1.36757 0.92331,1.42214 0.004,0.0546 -3.21595,0.0992 -7.15508,0.0992 h -7.16204 l 0.0995,3.47265 c 0.0547,1.90996 0.13736,4.3061 0.18366,5.32474 l 0.0842,1.85209 1.65364,0.85244 c 3.15131,1.62448 4.06136,2.98199 6.12435,9.13558 0.40248,1.20055 1.30792,3.84969 2.01208,5.88698 0.70416,2.03729 1.4483,4.21018 1.65364,4.82864 0.37256,1.12209 2.40116,6.87002 2.57968,7.30937 0.0897,0.22065 -3.16836,0.23173 -67.917995,0.231 -37.40669,-4.2e-4 -68.012165,-0.0311 -68.012165,-0.0682 z m 28.579685,-6.47999 c 2.116425,-2.65304 6.10284,-7.52848 7.112265,-8.69841 2.20246,-2.55265 3.2406,-3.16009 7.277845,-4.25839 5.103595,-1.3884 8.56525,-2.48486 9.280275,-2.93949 2.11652,-1.34573 2.75676,-2.21411 6.909415,-9.37142 1.561965,-2.69213 2.994675,-5.13291 3.18379,-5.42395 1.10025,-1.69324 3.001825,-3.03646 7.11142,-5.02331 4.104695,-1.9845 14.56348,-7.2448 14.51026,-7.29802 -0.0907,-0.0907 -1.76689,0.33708 -4.45705,1.13742 -1.41916,0.42222 -3.4435,1.01772 -4.49853,1.32334 -1.05503,0.30562 -2.8112,0.81502 -3.902605,1.13201 -1.091405,0.31699 -3.2643,0.93793 -4.828645,1.37986 -3.501785,0.98928 -4.561545,1.48 -6.231645,2.88554 -2.15544,1.814 -2.70301,2.59929 -4.126825,5.91836 -2.65564,6.19061 -3.149935,7.25721 -3.807535,8.21605 -0.421465,0.61453 -2.357235,1.9996 -3.52806,2.52437 -0.41834,0.18751 -3.08234,1.1111 -5.92,2.05243 -2.837655,0.94133 -5.46853,1.8784 -5.84639,2.08238 -0.97177,0.52459 -2.17006,1.544 -2.75795,2.34624 -0.27609,0.37675 -0.780575,1.32925 -1.12108,2.11666 -0.34051,0.78742 -1.69975,3.58935 -3.02054,6.22652 -1.320785,2.63717 -2.401435,4.83685 -2.401435,4.88818 0,0.1143 0.0171,0.0947 1.06302,-1.21637 z m 88.62299,-4.43177 c -0.0607,-0.76398 -0.17572,-2.57969 -0.25559,-4.0349 -0.0799,-1.4552 -0.1991,-3.30067 -0.26494,-4.10104 -0.0659,-0.80036 -0.12308,-2.05052 -0.12719,-2.77812 -0.0115,-2.0395 -0.48054,-3.47048 -1.39953,-4.26996 -0.5861,-0.50988 -3.9439,-2.33151 -4.1574,-2.25541 -0.0665,0.0237 0.0854,0.66816 0.33753,1.43214 0.25212,0.76398 0.84043,2.54992 1.30734,3.96875 0.70784,2.15093 2.93833,8.71452 4.26217,12.54219 0.18389,0.53167 0.35091,0.94838 0.37116,0.92604 0.0203,-0.0223 -0.0128,-0.66571 -0.0735,-1.42969 z m -14.09626,-7.88684 c -0.78119,-2.48406 -1.15531,-4.10927 -1.5039,-6.53295 -0.15175,-1.05503 -0.50927,-3.34698 -0.7945,-5.09323 -0.28524,-1.74625 -0.63964,-4.09773 -0.78757,-5.22552 -0.38917,-2.96689 -0.51171,-3.62521 -0.79311,-4.2606 -0.39919,-0.9014 -1.38905,-2.0338 -2.35719,-2.69662 -2.57084,-1.76009 -4.66285,-3.05836 -4.66285,-2.89368 0,0.4971 2.73174,7.25233 4.88327,12.07567 0.95064,2.13116 1.19456,3.02766 1.35636,4.98513 0.17594,2.1285 0.63037,4.14661 1.21539,5.39746 0.24502,0.52389 1.08345,1.86853 1.86319,2.98808 0.77973,1.11955 1.57666,2.32027 1.77096,2.66827 0.1943,0.34801 0.37034,0.61567 0.3912,0.5948 0.0208,-0.0209 -0.2407,-0.92393 -0.58125,-2.00681 z m -85.643915,-0.55428 c 5.115955,-1.41097 7.06545,-2.04683 7.776235,-2.53635 0.949885,-0.65419 1.572685,-1.52954 3.296265,-4.63295 3.149295,-5.67047 3.51826,-6.2473 4.395605,-6.87203 0.4155,-0.29586 2.390145,-0.87837 7.418355,-2.18837 4.67241,-1.2173 4.783265,-1.26645 9.164385,-4.06253 0.30748,-0.19624 0.84212,-0.5184 1.1881,-0.71592 0.345975,-0.19752 0.613195,-0.37497 0.593825,-0.39435 -0.01935,-0.0193 -1.07635,0.16498 -2.34884,0.40967 -1.27249,0.2447 -3.7126,0.68911 -5.42247,0.9876 -2.90318,0.50679 -4.562425,0.80733 -9.192855,1.66508 -2.334045,0.43236 -2.935055,0.68944 -3.78438,1.61873 -0.674805,0.73835 -0.848465,1.06668 -3.653795,6.90802 -1.1485,2.39145 -2.055735,3.86913 -2.7494,4.47818 -0.444185,0.39 -1.73286,1.17314 -4.16749,2.53262 -1.401765,0.78274 -5.7404,3.37309 -6.15156,3.67274 l -0.264585,0.19282 0.264585,-0.0663 c 0.14552,-0.0364 1.78263,-0.48496 3.63802,-0.99667 z m 3.00458,-7.94877 c 1.01189,-0.65402 1.307195,-1.05401 2.155805,-2.92002 1.364275,-2.99992 3.6588,-7.49655 4.197205,-8.22537 0.72517,-0.98162 1.335745,-1.47329 2.614805,-2.10558 1.2684,-0.62703 2.29278,-0.89629 5.80461,-1.52574 1.46413,-0.26243 2.70067,-0.50083 2.74786,-0.52979 0.1416,-0.0869 0.13988,-15.66402 -0.0015,-15.66402 -0.06921,0 -0.61337,0.61019 -1.20925,1.35599 -0.595875,0.74579 -1.12226,1.35599 -1.16974,1.35599 -0.0475,0 -1.98797,-1.9477 -4.312195,-4.32823 -3.885455,-3.97957 -4.57067,-4.63388 -4.57201,-4.3658 -2.6e-4,0.0523 -0.90811,0.0951 -2.017445,0.0951 -1.109335,0 -2.061955,0.0186 -2.116925,0.0413 -0.14426,0.0597 0.851,1.71865 3.26882,5.44877 0.495205,0.76399 1.23495,1.91207 1.64388,2.55129 0.408925,0.63922 1.059995,1.65125 1.446825,2.24896 0.386825,0.5977 0.829105,1.28962 0.982835,1.5376 l 0.279515,0.45087 -2.799085,-0.0764 -2.799085,-0.0764 0.25959,0.48541 c 0.142775,0.26697 1.30024,2.05726 2.57215,3.97842 1.27191,1.92116 2.281435,3.54338 2.243385,3.60495 -0.03805,0.0616 -0.125425,0.11193 -0.19417,0.11193 -0.06874,0 -0.691115,0.2699 -1.383045,0.59978 -1.548355,0.73817 -2.81052,1.79465 -3.858035,3.22931 l -0.76988,1.05441 -2.315105,0.005 -2.3151,0.005 0.03145,1.68691 c 0.043,2.30597 0.288925,8.3505 0.38754,9.52518 0.05175,0.61642 0.137575,0.95912 0.2402,0.95912 0.08782,0 0.51817,-0.23171 0.95632,-0.5149 z m 96.474025,-7.21051 c 0.0932,-2.28444 0.12893,-4.2192 0.0793,-4.29948 -0.0594,-0.0961 -0.78228,-0.14595 -2.11798,-0.14595 H 137.93 l -0.68249,-2.01745 c -0.86047,-2.54358 -1.61319,-4.08331 -2.72152,-5.56704 l -0.87275,-1.16835 1.24473,-1.87436 c 1.48723,-2.23953 1.59156,-2.42648 1.41499,-2.5356 -0.073,-0.0451 -0.17729,-0.0561 -0.23187,-0.0246 -0.16975,0.0983 -4.9116,0.24843 -5.05456,0.16008 -0.0904,-0.0559 -0.0914,-0.13609 -0.003,-0.24196 0.18306,-0.21906 3.24608,-5.00577 5.62709,-8.7937 0.28698,-0.45656 0.68172,-1.08164 0.87718,-1.38906 0.19546,-0.30742 0.50232,-0.80929 0.68191,-1.11526 l 0.32651,-0.55631 -2.2694,-0.0395 -2.26941,-0.0395 -4.29948,4.34066 -4.29948,4.34067 -0.66069,-0.83443 c -0.36338,-0.45894 -0.73088,-0.90852 -0.81666,-0.99908 -0.0858,-0.0906 -0.27721,-0.31879 -0.4254,-0.50718 -0.51392,-0.65334 -0.56261,-0.35449 -0.53724,3.29754 0.0132,1.90284 0.0512,3.67845 0.0844,3.94581 l 0.0604,0.48611 2.72648,1.09208 c 3.5534,1.4233 4.56991,2.0969 6.07441,4.0253 0.58236,0.74644 1.51994,2.66435 2.06744,4.22916 1.79862,5.14061 2.80542,7.30562 3.83778,8.25274 0.28993,0.266 3.70301,2.1082 3.93922,2.12619 0.043,0.004 0.15453,-1.86313 0.24777,-4.14756 z m -72.722615,-9.23165 0.760675,-0.143 v -14.47578 -14.47579 l 0.69923,-0.88591 c 0.384575,-0.48725 0.93349,-1.21333 1.219815,-1.61351 0.28632,-0.40018 0.94272,-1.26338 1.458655,-1.91823 0.51594,-0.65484 2.392575,-3.06586 4.170295,-5.35781 1.777725,-2.29195 4.096975,-5.26851 5.153885,-6.61458 1.05691,-1.34607 2.481005,-3.18711 3.164655,-4.0912 0.68365,-0.90409 2.37978,-3.07698 3.76918,-4.82864 1.389405,-1.751668 2.7281,-3.466276 2.97489,-3.810243 l 0.4487,-0.625394 0.583315,0.757686 c 0.320825,0.416727 0.936945,1.20417 1.36916,1.749873 0.432215,0.545704 1.421725,1.825628 2.198915,2.844268 1.729995,2.26747 4.106505,5.39088 4.982505,6.54844 0.35791,0.47294 1.19754,1.54451 1.86584,2.38125 1.93588,2.42381 4.81202,6.11795 9.32133,11.97239 l 2.64929,3.43959 0.004,9.81887 0.004,9.81888 1.09141,0.51862 c 0.60027,0.28524 1.26354,0.55808 1.47393,0.60631 l 0.38252,0.0877 -0.0712,-8.87076 c -0.0391,-4.87892 -0.0327,-8.86638 0.0144,-8.86102 0.0989,0.0112 2.68435,3.10123 4.95465,5.92149 0.85899,1.06707 1.60938,1.95709 1.66755,1.97783 0.0582,0.0208 0.74349,-0.65298 1.52293,-1.49715 l 1.41717,-1.53485 -0.36349,-0.48723 c -0.19992,-0.26798 -0.54625,-0.7041 -0.76962,-0.96916 -0.78726,-0.93421 -4.34856,-5.43392 -6.48479,-8.19355 -0.92492,-1.19484 -2.19779,-2.82454 -2.82859,-3.62157 -0.6308,-0.79702 -1.98035,-2.52884 -2.99899,-3.84848 -1.01865,-1.31965 -2.22296,-2.8702 -2.67624,-3.44566 -2.79978,-3.55441 -4.74655,-6.05371 -6.07031,-7.79318 -0.83058,-1.0914 -2.22343,-2.90711 -3.09521,-4.03489 -0.87179,-1.127789 -2.19225,-2.854195 -2.93437,-3.836461 -0.742125,-0.982265 -1.80295,-2.351484 -2.3574,-3.042708 -0.554445,-0.691224 -1.72737,-2.209271 -2.606495,-3.373437 -0.879125,-1.164167 -1.77055,-2.317919 -1.98094,-2.563893 l -0.382525,-0.447227 -2.14406,2.828477 c -4.82653,6.367228 -6.85476,9.021051 -8.459535,11.068819 -3.10263,3.95908 -4.92073,6.29193 -6.82642,8.75914 -1.03971,1.34606 -3.017745,3.89978 -4.39563,5.67493 -1.377885,1.77515 -3.17759,4.09686 -3.99935,5.15937 -1.28727,1.66441 -2.302775,2.95535 -5.994495,7.62038 -2.4048,3.03882 -3.42235,4.38931 -3.423795,4.54409 -0.002,0.19252 2.61029,3.06268 2.787295,3.06268 0.05879,0 0.348585,-0.33752 0.64399,-0.75005 0.48747,-0.68074 1.408335,-1.78146 3.247775,-3.88208 0.363805,-0.41546 1.107945,-1.29568 1.653645,-1.95604 0.545705,-0.66036 1.036835,-1.20434 1.09141,-1.20885 0.05457,-0.005 0.09921,5.89217 0.09921,13.10371 v 13.11189 l 0.628385,-0.0877 c 0.345615,-0.0482 0.97069,-0.15202 1.389065,-0.23067 z m 7.37526,-1.3647 c 1.055025,-0.18716 3.842685,-0.88398 6.194795,-1.54849 l 4.27657,-1.20819 -0.0213,-8.80844 c -0.0117,-4.84464 -0.01625,-8.88285 -0.01015,-8.9738 0.0087,-0.12968 1.29587,-0.16537 5.964245,-0.16537 h 5.953125 v 7.34219 c 0,4.0382 0.0149,7.34178 0.03305,7.34129 0.0182,-4.9e-4 1.0451,-0.30077 2.28203,-0.66728 4.86005,-1.44008 7.88553,-2.10995 9.52964,-2.10995 h 0.96216 l 0.008,-8.69472 c 0.008,-7.82375 -0.0131,-8.72821 -0.20729,-9.02891 -0.32463,-0.50275 -3.28895,-4.349 -6.78211,-8.79991 -1.71271,-2.1823 -3.59027,-4.5981 -4.17236,-5.36843 -1.79165,-2.3711 -4.54433,-5.9782 -5.040375,-6.6049 -0.259165,-0.32742 -0.92273,-1.17574 -1.47459,-1.88516 -0.551865,-0.70941 -1.04579,-1.28984 -1.09762,-1.28984 -0.05183,0 -0.512195,0.55066 -1.023025,1.2237 -1.74328,2.29681 -6.96975,9.07075 -9.893955,12.82338 -1.60553,2.06038 -3.50831,4.52005 -4.2284,5.46594 -0.720085,0.94588 -1.83237,2.39682 -2.471735,3.2243 l -1.162485,1.50451 v 13.35414 c 0,12.65669 0.0121,13.35049 0.23151,13.28419 0.12733,-0.0385 1.094715,-0.22309 2.14974,-0.41025 z"
       id="path1" /></g></svg>
