<?xml version="1.0" encoding="UTF-8" standalone="no"?>
<!-- Created with Inkscape (http://www.inkscape.org/) -->

<svg
   width="171.69743mm"
   height="40.393345mm"
   viewBox="0 0 171.69743 40.393345"
   version="1.1"
   id="svg1"
   xml:space="preserve"
   sodipodi:docname="HockingLuxuryLodgesTextOnly.svg"
   inkscape:version="1.3 (0e150ed6c4, 2023-07-21)"
   xmlns:inkscape="http://www.inkscape.org/namespaces/inkscape"
   xmlns:sodipodi="http://sodipodi.sourceforge.net/DTD/sodipodi-0.dtd"
   xmlns="http://www.w3.org/2000/svg"
   xmlns:svg="http://www.w3.org/2000/svg"><sodipodi:namedview
     id="namedview1"
     pagecolor="#ffffff"
     bordercolor="#000000"
     borderopacity="0.25"
     inkscape:showpageshadow="2"
     inkscape:pageopacity="0.0"
     inkscape:pagecheckerboard="0"
     inkscape:deskcolor="#d1d1d1"
     inkscape:document-units="mm"
     inkscape:zoom="0.82142635"
     inkscape:cx="351.21834"
     inkscape:cy="-113.2177"
     inkscape:window-width="1440"
     inkscape:window-height="890"
     inkscape:window-x="1247"
     inkscape:window-y="1433"
     inkscape:window-maximized="1"
     inkscape:current-layer="layer1" /><defs
     id="defs1" /><g
     inkscape:label="Layer 1"
     inkscape:groupmode="layer"
     id="layer1"
     transform="translate(-14.809921,-144.08373)"><path
       style="fill:#000000"
       d="m 31.724026,184.43993 c -1.894593,-0.25713 -3.25025,-1.19447 -3.944948,-2.72765 -0.414541,-0.91487 -0.430024,-1.0976 -0.449624,-5.30633 l -0.0178,-3.82296 1.097687,2e-5 1.097686,2e-5 0.0292,3.69449 c 0.03173,4.01516 0.03095,4.00667 0.446216,4.82744 0.405534,0.80152 1.224201,1.27207 2.406949,1.38346 1.237021,0.11649 2.417987,-0.46667 2.909566,-1.43675 0.357258,-0.70502 0.379673,-0.99208 0.38099,-4.87921 l 0.0012,-3.58943 1.103094,-5e-5 1.103094,-4e-5 -0.01751,2.03113 c -0.0511,5.92808 -0.05425,6.02772 -0.205927,6.51402 -0.574364,1.84152 -1.917082,2.95472 -3.929868,3.25813 -0.634654,0.0957 -1.525511,0.11947 -2.010013,0.0537 z m 28.960589,0.008 c -1.425568,-0.26546 -1.867251,-0.42929 -2.635841,-0.97775 -0.545864,-0.38952 -0.948779,-0.88109 -1.25956,-1.53671 -0.487416,-1.02825 -0.475725,-0.90302 -0.500181,-5.35788 l -0.02211,-4.02717 1.070733,0.0136 1.070732,0.0137 0.03728,3.76839 c 0.03602,3.64062 0.04249,3.78392 0.190846,4.22635 0.37925,1.13098 1.16061,1.73345 2.463101,1.89915 1.348938,0.17162 2.559799,-0.37844 3.080681,-1.39945 0.334356,-0.65539 0.354249,-0.92563 0.355353,-4.82724 l 10e-4,-3.65947 0.577811,-0.006 c 0.317796,-0.003 0.814188,-0.0112 1.103094,-0.0175 l 0.525282,-0.0115 v 3.88709 c 0,3.80501 -0.0033,3.89966 -0.157233,4.48241 -0.467305,1.76933 -1.541707,2.85851 -3.317123,3.36276 -0.506624,0.14389 -2.141173,0.24969 -2.583905,0.16725 z m 61.655725,-0.0322 c -0.99411,-0.12948 -1.99097,-0.47391 -2.72789,-0.94253 -1.27178,-0.80874 -2.15896,-1.97645 -2.56441,-3.3753 -0.13536,-0.46702 -0.15791,-0.70727 -0.15637,-1.6663 0.002,-1.42362 0.19497,-2.19042 0.81382,-3.23846 0.30196,-0.51139 1.38639,-1.59638 1.89661,-1.89761 2.53582,-1.49709 6.07089,-1.20041 8.12402,0.68182 1.09935,1.00784 1.70767,2.26166 1.87224,3.85892 0.24543,2.38207 -0.85767,4.55421 -2.93823,5.78569 -1.16225,0.68794 -2.80908,0.99055 -4.31979,0.79377 z m 2.04357,-2.0683 c 1.03007,-0.24662 1.94191,-0.9545 2.42781,-1.88474 0.39251,-0.75147 0.50735,-1.21914 0.50735,-2.06611 0,-0.84271 -0.11525,-1.31605 -0.49879,-2.04859 -0.99842,-1.9069 -3.53508,-2.64452 -5.57028,-1.61975 -0.61621,0.31027 -1.41735,1.08319 -1.66072,1.60222 -0.3751,0.79997 -0.43761,1.04086 -0.47253,1.82098 -0.0571,1.27551 0.28005,2.25577 1.05203,3.05873 0.75434,0.78462 1.32413,1.05278 2.70932,1.27506 0.27225,0.0437 1.04199,-0.0267 1.50581,-0.1378 z m 29.80104,2.07494 c -2.77604,-0.3575 -4.85215,-2.17329 -5.36102,-4.6888 -0.15507,-0.76653 -0.10844,-2.25801 0.0932,-2.98288 0.56529,-2.03167 2.05259,-3.48012 4.25223,-4.14115 0.55559,-0.16696 0.77568,-0.19279 1.856,-0.21783 1.06469,-0.0247 1.30749,-0.009 1.8487,0.11844 1.19308,0.28117 2.12986,0.75839 2.84949,1.45158 l 0.32083,0.30904 -0.56596,0.54508 c -0.31128,0.29979 -0.64067,0.61151 -0.73197,0.69271 l -0.16601,0.14763 -0.4078,-0.33937 c -2.23845,-1.86286 -5.86585,-1.11579 -6.87976,1.41689 -0.78901,1.97092 -0.032,4.31146 1.6884,5.22034 0.59754,0.31568 1.01078,0.43295 1.78585,0.5068 0.96548,0.092 1.76428,-0.042 2.622,-0.43977 l 0.29766,-0.13804 v -1.81327 -1.81327 h 1.08559 1.08558 v 2.33406 c 0,2.69083 0.0825,2.39384 -0.80543,2.89775 -1.05986,0.60146 -2.19175,0.91016 -3.51792,0.95945 -0.49195,0.0183 -1.09932,0.007 -1.3497,-0.0254 z m 26.54429,0.0245 c -1.39839,-0.17169 -2.79876,-0.66076 -3.514,-1.22724 -0.33137,-0.26245 -0.33387,-0.24096 0.14758,-1.26939 l 0.35038,-0.74846 0.43255,0.28731 c 1.20458,0.8001 2.78663,1.18937 4.22688,1.04002 1.30294,-0.13511 1.92853,-0.57635 1.92853,-1.36023 0,-0.84666 -0.48884,-1.16311 -2.60954,-1.68927 -2.19697,-0.54509 -3.04398,-0.88944 -3.73008,-1.5165 -0.65854,-0.60187 -0.92488,-1.54656 -0.73843,-2.61913 0.27442,-1.57858 1.48513,-2.57626 3.52242,-2.90266 0.85881,-0.13759 2.51502,-0.055 3.38054,0.16866 0.67735,0.175 2.02831,0.77136 1.97174,0.8704 -0.0453,0.0793 -0.45886,0.98675 -0.6129,1.34481 l -0.14256,0.33141 -0.46807,-0.23708 c -1.39611,-0.70715 -3.22975,-0.92486 -4.32014,-0.51294 -0.77306,0.29204 -1.23963,0.95934 -1.12039,1.60241 0.0665,0.35866 0.58721,0.84211 1.12091,1.0407 0.23084,0.0859 0.82943,0.25339 1.3302,0.3722 1.47095,0.349 2.41788,0.63089 2.94241,0.87594 0.63414,0.29625 1.17601,0.82556 1.46343,1.42951 0.20484,0.43045 0.21665,0.50104 0.21665,1.2957 0,0.80141 -0.0105,0.86258 -0.22564,1.31682 -0.44421,0.93783 -1.36517,1.61425 -2.64591,1.94334 -0.55087,0.14154 -2.28939,0.23944 -2.90656,0.16367 z M 15.276839,184.23263 c -0.02568,-0.0257 -0.04669,-2.65584 -0.04669,-5.8448 v -5.79811 l 1.120701,-0.0209 1.1207,-0.0208 -9.7e-5,4.92015 -9.7e-5,4.92015 h 3.221734 3.221734 v 0.9455 0.94551 h -4.295645 c -2.362605,0 -4.316657,-0.021 -4.342338,-0.0467 z m 26.030068,-0.0516 c 0.02751,-0.0717 3.749815,-5.1017 4.26464,-5.76288 0.0852,-0.10942 0.04847,-0.17117 -0.727393,-1.22291 -0.359379,-0.48716 -0.984345,-1.33726 -1.388813,-1.88911 -0.404468,-0.55185 -1.022973,-1.38901 -1.374456,-1.86035 -0.351482,-0.47133 -0.629977,-0.86615 -0.618877,-0.87737 0.0111,-0.0112 0.595306,-0.005 1.298236,0.0146 l 1.278053,0.035 0.321352,0.42855 c 0.473277,0.63116 2.623703,3.53242 2.686547,3.62456 0.06728,0.0986 -0.02143,0.20949 1.721653,-2.15145 l 1.425416,-1.93068 1.253609,-0.0205 c 0.689486,-0.0113 1.253573,-0.0116 1.253527,-7.6e-4 -4.6e-5,0.0109 -0.930026,1.26159 -2.066622,2.77938 -1.136597,1.5178 -2.084375,2.80611 -2.106174,2.86292 -0.03862,0.10064 0.931288,1.42288 3.387706,4.61837 0.585836,0.7621 1.065157,1.401 1.065157,1.41977 0,0.0188 -0.603018,0.0256 -1.340041,0.0151 l -1.340041,-0.019 -0.883656,-1.19777 c -0.486011,-0.65877 -1.209192,-1.64368 -1.607069,-2.18867 -0.397878,-0.545 -0.744564,-0.98937 -0.770415,-0.98749 -0.02585,0.002 -0.329594,0.40373 -0.674985,0.89298 -0.52616,0.74532 -1.090021,1.51865 -2.397668,3.28835 l -0.168192,0.22762 h -1.264608 c -1.056684,0 -1.258405,-0.0162 -1.226886,-0.0983 z m 30.140168,0.0516 c -0.02568,-0.0257 -0.04669,-2.65735 -0.04669,-5.84815 v -5.80145 l 3.064149,5.3e-4 c 1.751992,3e-4 3.253276,0.0312 3.505799,0.0722 1.325259,0.21506 2.498315,0.93956 3.076461,1.90008 0.624316,1.03722 0.672756,2.84365 0.10669,3.97871 -0.27137,0.54414 -1.061299,1.31476 -1.613373,1.57394 -0.292438,0.13729 -0.427694,0.2383 -0.403504,0.30134 0.02001,0.0521 0.613481,0.90473 1.318816,1.89461 0.705335,0.98989 1.306372,1.8392 1.335637,1.88735 0.04179,0.0688 -0.216612,0.0875 -1.204327,0.0875 H 79.329198 L 78.1995,182.65092 c -0.621333,-0.89561 -1.17219,-1.68414 -1.224126,-1.75228 -0.08625,-0.11317 -0.233275,-0.12227 -1.696596,-0.10506 l -1.602168,0.0188 -0.01873,1.73343 -0.01873,1.73343 h -1.072688 c -0.589978,0 -1.093699,-0.021 -1.11938,-0.0467 z m 6.272277,-5.49153 c 1.068375,-0.35991 1.545907,-1.00841 1.543342,-2.09589 -0.0021,-0.87674 -0.273966,-1.42089 -0.91226,-1.82568 -0.550115,-0.34888 -1.10002,-0.42241 -2.99292,-0.40021 l -1.680905,0.0197 -0.01849,2.22369 -0.01849,2.2237 h 1.824174 c 1.660833,0 1.8628,-0.013 2.255556,-0.14532 z m 11.168821,5.49324 c -0.02662,-0.0266 -0.04871,-0.94926 -0.04908,-2.05031 l -6.74e-4,-2.00191 -0.72211,-1.15562 c -0.39716,-0.6356 -1.283109,-2.05386 -1.968776,-3.1517 -0.685667,-1.09784 -1.431025,-2.28634 -1.656352,-2.64112 -0.225327,-0.35477 -0.387014,-0.65418 -0.359304,-0.66536 0.02771,-0.0112 0.576034,-0.011 1.218497,4.2e-4 l 1.168114,0.0207 0.135679,0.2244 c 0.216258,0.35767 2.41605,3.86853 2.894282,4.61927 0.239249,0.37558 0.453444,0.68158 0.475988,0.68001 0.02254,-0.002 0.179899,-0.23007 0.349677,-0.50778 0.388454,-0.63538 1.108059,-1.7957 1.594493,-2.57102 0.205427,-0.32743 0.633415,-1.01571 0.951089,-1.52951 l 0.57758,-0.93418 1.13811,0.002 c 0.62596,0.001 1.1403,0.0213 1.14298,0.0443 0.004,0.0379 -0.42951,0.73356 -1.44202,2.31191 -0.19769,0.30817 -0.56433,0.89123 -0.81476,1.2957 -0.25043,0.40447 -0.889846,1.43557 -1.420919,2.29134 l -0.965587,1.55594 -0.02772,2.08602 -0.02772,2.08601 -1.071536,0.0192 c -0.589345,0.0106 -1.093317,-0.003 -1.119939,-0.0292 z m 16.760647,-5.79149 c 0,-3.21006 0.013,-5.84961 0.029,-5.86566 0.0159,-0.0161 0.52021,-0.0198 1.12061,-0.008 l 1.09162,0.0209 v 4.89921 4.89922 h 3.22173 3.22174 l -5e-4,0.47275 c -2.8e-4,0.26001 -0.0206,0.68549 -0.0452,0.94551 l -0.0446,0.47275 h -4.29719 -4.29719 z m 28.04207,-0.013 0.008,-5.84948 3.1517,-0.006 c 2.9287,-0.006 3.19932,0.004 3.82489,0.13783 1.2524,0.26784 2.1431,0.71186 2.9512,1.47116 1.22615,1.15212 1.78776,2.62654 1.71144,4.4931 -0.0198,0.48425 -0.0895,1.0789 -0.15604,1.33071 -0.58012,2.19628 -2.31645,3.71746 -4.72455,4.13913 -0.63594,0.11136 -1.14379,0.12907 -3.75505,0.13097 l -3.01965,0.002 z m 6.52154,3.78656 c 1.43759,-0.41329 2.50446,-1.53491 2.80101,-2.94477 0.29943,-1.42359 -0.0706,-2.7292 -1.05425,-3.71957 -0.96987,-0.97652 -1.67079,-1.16073 -4.30645,-1.13182 l -1.71261,0.0188 0.007,1.99607 c 0.004,1.09784 0.0119,2.88941 0.0175,3.98127 l 0.0102,1.9852 1.90852,-0.0322 c 1.52577,-0.0257 1.99281,-0.0564 2.32876,-0.15299 z m 24.21513,-3.80273 0.0179,-5.86566 4.47191,0.019 4.47191,0.019 10e-6,0.89147 1e-5,0.89147 -3.33381,0.0182 -3.3338,0.0182 v 1.50513 1.50513 h 2.9766 2.9766 v 0.90974 0.90973 l -2.99411,0.0183 -2.99411,0.0183 v 1.57585 1.57584 l 3.48437,0.0182 3.48438,0.0182 v 0.90984 0.90983 h -4.62289 -4.62289 z M 53.295638,166.20061 c -2.027513,-0.17302 -4.016528,-0.78916 -5.549954,-1.71921 -2.418064,-1.4666 -4.032299,-3.35049 -4.844406,-5.65367 -0.402912,-1.14268 -0.585807,-2.23695 -0.59234,-3.54402 -0.01316,-2.63222 0.726095,-4.81437 2.290279,-6.76052 0.702277,-0.87376 1.902388,-1.93772 2.743216,-2.43198 0.69306,-0.4074 2.0041,-1.01092 2.707843,-1.24652 3.500348,-1.17185 7.908623,-0.97607 11.019547,0.48939 3.279077,1.54468 5.455124,4.16454 6.25717,7.53333 0.168625,0.70827 0.183537,0.89472 0.18486,2.31125 0.0013,1.34554 -0.01822,1.62579 -0.153701,2.21119 -0.89107,3.85032 -3.590494,6.75147 -7.55349,8.11797 -1.903034,0.6562 -4.143492,0.89466 -6.509024,0.69279 z m 3.426422,-4.48231 c 1.238741,-0.24735 2.234989,-0.72716 3.273978,-1.5768 1.657499,-1.35542 2.556925,-3.54964 2.311716,-5.63961 -0.227451,-1.9386 -1.264186,-3.63514 -2.896119,-4.73927 -0.82019,-0.55492 -2.067737,-1.04161 -3.073677,-1.19909 -0.527877,-0.0826 -2.276478,-0.10927 -2.692132,-0.041 -1.385505,0.22756 -2.202489,0.54174 -3.291772,1.26587 -1.274946,0.84755 -2.219029,2.18692 -2.639302,3.74438 -0.224535,0.83209 -0.224053,2.48967 9.68e-4,3.32679 0.199579,0.74248 0.682636,1.69959 1.182563,2.34307 1.657343,2.13328 4.75337,3.12878 7.823777,2.51567 z m 26.37462,4.49019 c -3.549149,-0.33104 -6.517931,-1.77669 -8.511706,-4.1448 -0.863619,-1.02576 -1.284306,-1.71339 -1.74129,-2.84624 -0.582542,-1.4441 -0.7768,-2.64007 -0.724223,-4.45879 0.03217,-1.11295 0.06214,-1.36058 0.255391,-2.11033 0.491236,-1.90587 1.187215,-3.20982 2.501917,-4.68749 1.387436,-1.55942 3.537886,-2.80876 5.838629,-3.39206 1.584046,-0.4016 1.99649,-0.44966 3.887092,-0.45299 2.215041,-0.004 3.031022,0.10773 4.692526,0.64201 1.02134,0.32843 1.892488,0.74962 2.785519,1.34678 0.749911,0.50145 2.182351,1.78966 2.113651,1.90082 -0.0817,0.13218 -3.330712,3.00812 -3.392745,3.00317 -0.0196,-0.002 -0.240493,-0.19302 -0.490878,-0.42544 -1.017562,-0.94458 -2.230368,-1.58716 -3.639779,-1.92847 -0.971534,-0.23526 -2.633557,-0.26793 -3.608391,-0.0709 -1.658993,0.33528 -3.026495,1.08992 -4.045864,2.23267 -0.84306,0.9451 -1.294998,1.82071 -1.559026,3.02056 -0.182093,0.82749 -0.117777,2.38103 0.133275,3.21923 0.101616,0.33927 0.267111,0.78051 0.367767,0.98053 0.928979,1.84603 2.740976,3.19341 4.928022,3.66442 0.838256,0.18053 2.894889,0.18392 3.64196,0.006 1.622976,-0.38652 2.585444,-0.90177 3.716916,-1.98984 l 0.600238,-0.57721 0.736939,0.6457 c 0.778049,0.68172 2.307816,2.03027 2.542776,2.24157 0.13667,0.1229 0.12438,0.13954 -0.70739,0.95781 -0.932414,0.9173 -1.735313,1.48929 -2.862311,2.03914 -0.942142,0.45966 -2.195401,0.86005 -3.252944,1.03925 -1.005822,0.17044 -3.143046,0.24408 -4.206071,0.14493 z m 91.50426,-0.009 c -0.973,-0.0759 -2.44513,-0.35547 -3.24031,-0.61532 -3.40531,-1.1128 -6.05419,-3.52896 -7.19675,-6.56447 -0.69393,-1.84359 -0.85144,-4.20626 -0.41484,-6.22278 0.3941,-1.82028 1.45696,-3.75248 2.80721,-5.10332 2.47736,-2.47843 6.11124,-3.7401 10.35593,-3.59553 3.07069,0.10459 5.60178,0.87299 7.61165,2.31078 0.5105,0.3652 1.59831,1.32596 1.59831,1.41164 0,0.0365 -0.87436,0.86809 -1.33072,1.26559 -0.21186,0.18453 -0.6969,0.62221 -1.07786,0.97261 -1.00489,0.92429 -0.87193,0.8831 -1.42535,0.44161 -0.98994,-0.78972 -1.7699,-1.22449 -2.80526,-1.56375 -3.29348,-1.07918 -6.80691,-0.44053 -8.86988,1.61231 -0.77069,0.7669 -1.4445,1.93997 -1.69793,2.95597 -0.17782,0.71292 -0.17578,2.68242 0.003,3.35427 0.56302,2.11017 2.27755,3.88031 4.4326,4.57638 1.01457,0.3277 1.53521,0.39551 3.03568,0.39535 1.22881,-1.3e-4 1.55692,-0.0241 2.27622,-0.16661 0.87986,-0.17427 1.59319,-0.40042 2.15366,-0.68276 l 0.33268,-0.16759 v -1.6447 -1.64471 h -1.85722 -1.85722 l 0.0187,-1.73343 0.0187,-1.73344 0.3677,0.003 c 0.20224,0.001 2.1345,0.009 4.29391,0.0175 l 3.92622,0.0148 -0.0131,4.56141 c -0.0126,4.40892 -0.0176,4.56594 -0.14869,4.69704 -0.48693,0.48692 -2.11083,1.35454 -3.4308,1.83299 -2.52127,0.91389 -5.02545,1.23712 -7.86682,1.01544 z M 14.809921,155.17866 v -10.68075 h 2.590835 2.590835 l 0.01807,4.11471 0.01807,4.11472 h 5.743091 5.743092 l 0.01807,-4.11472 0.01807,-4.11471 h 2.590836 2.590835 v 10.68075 10.68075 H 34.14033 31.548935 v -4.4474 -4.44739 h -5.778111 -5.77811 v 4.44739 4.4474 h -2.591395 -2.591395 z m 84.528725,10.45312 c -0.004,-0.12519 -0.014,-4.93152 -0.0229,-10.68074 l -0.0161,-10.45313 h 2.579254 2.57925 v 4.90264 c 0,2.69645 0.0226,4.90264 0.0503,4.90264 0.0277,0 2.24788,-2.20619 4.9338,-4.90264 l 4.88349,-4.90264 h 3.06645 3.06644 l -3.33151,3.3443 c -1.83233,1.83936 -3.94852,3.97301 -4.70264,4.74143 -1.33656,1.36192 -1.36818,1.40084 -1.2544,1.54399 0.0642,0.0808 0.98203,1.18549 2.03961,2.45494 3.42369,4.10953 4.76513,5.73526 6.0076,7.28076 0.30968,0.38521 0.80308,0.99224 1.09645,1.34896 l 0.53339,0.64857 -3.09738,-0.0182 -3.09738,-0.0182 -0.56218,-0.67288 c -0.3092,-0.37008 -0.68825,-0.8245 -0.84233,-1.00982 -0.15408,-0.18532 -0.54955,-0.6547 -0.87881,-1.04305 -0.32927,-0.38835 -1.32249,-1.57282 -2.20716,-2.63214 -0.88467,-1.05932 -1.84318,-2.20269 -2.13003,-2.54082 l -0.52153,-0.61478 -1.08642,1.07003 c -0.59753,0.58851 -1.28427,1.26225 -1.5261,1.49718 l -0.43968,0.42716 v 2.77707 2.77707 h -2.55638 -2.556374 z m 25.150314,-10.45312 v -10.68075 h 2.5914 2.59139 v 10.68075 10.68075 h -2.59139 -2.5914 z m 12.04649,8.7e-4 v -10.68162 h 2.20123 2.20122 l 0.38115,0.40271 c 0.20962,0.2215 0.56642,0.61185 0.79288,0.86744 0.22646,0.2556 1.40555,1.57931 2.6202,2.94159 1.21466,1.36227 3.35406,3.78481 4.75422,5.38342 2.3568,2.69084 3.14072,3.5719 3.17808,3.57194 0.008,1e-5 0.006,-2.96259 -0.005,-6.58354 l -0.0197,-6.58356 h 2.59356 2.59357 v 10.68075 10.68075 l -2.2237,-0.003 -2.2237,-0.003 -2.10113,-2.38579 c -1.15562,-1.31218 -2.49509,-2.83356 -2.9766,-3.38083 -0.48151,-0.54727 -1.45853,-1.6525 -2.17117,-2.45606 -0.71263,-0.80357 -1.86699,-2.10961 -2.56523,-2.90231 -0.69825,-0.7927 -1.4142,-1.59885 -1.59102,-1.79146 l -0.32148,-0.35019 -0.009,3.712 c -0.005,2.0416 -0.0214,5.01995 -0.0365,6.61856 l -0.0275,2.90657 -2.52219,0.0184 -2.52218,0.0184 z"
       id="path1"
       sodipodi:nodetypes="ssscccssssscccsscsscssscccsssscccccscsccssscscsssscssssssssccscsscscsscssssscccccsssccssscsssssssssscssssssssssssscccccccccssscsssssccscsccsssssccsscsscscccscscssssssscssccccsccscsscccssscscssssccsscssscccsssccccccscccccccsccccsccccsscsccccsssccscccccccccccccccccccccccccccccsssssssssccsssssscsssscsscsssssscsssccscssssssscssssscccssssssssssssscsscscccccccccccssccccccccccccccccccccccccccccccccssscccssscsscccssssscssccccccccccccccccccccssssccccccccsssssccccccc" /></g></svg>
