<?xml version="1.0" encoding="UTF-8" standalone="no"?>
<!-- Created with Inkscape (http://www.inkscape.org/) -->

<svg
   width="171.69743mm"
   height="92.946548mm"
   viewBox="0 0 171.69743 92.946548"
   version="1.1"
   id="svg1"
   xml:space="preserve"
   inkscape:version="1.3 (0e150ed6c4, 2023-07-21)"
   sodipodi:docname="HockingLuxuryLodgesLogoWithText.svg"
   xmlns:inkscape="http://www.inkscape.org/namespaces/inkscape"
   xmlns:sodipodi="http://sodipodi.sourceforge.net/DTD/sodipodi-0.dtd"
   xmlns="http://www.w3.org/2000/svg"
   xmlns:svg="http://www.w3.org/2000/svg"><sodipodi:namedview
     id="namedview1"
     pagecolor="#ffffff"
     bordercolor="#000000"
     borderopacity="0.25"
     inkscape:showpageshadow="2"
     inkscape:pageopacity="0.0"
     inkscape:pagecheckerboard="0"
     inkscape:deskcolor="#d1d1d1"
     inkscape:document-units="mm"
     inkscape:zoom="0.14520903"
     inkscape:cx="-127.40254"
     inkscape:cy="323.67132"
     inkscape:window-width="1440"
     inkscape:window-height="890"
     inkscape:window-x="1247"
     inkscape:window-y="1433"
     inkscape:window-maximized="1"
     inkscape:current-layer="layer1" /><defs
     id="defs1" /><g
     inkscape:label="Layer 1"
     inkscape:groupmode="layer"
     id="layer1"
     transform="translate(-14.809921,-91.530528)"><path
       style="fill:#000000"
       d="m 31.724026,184.43993 c -1.894593,-0.25713 -3.25025,-1.19447 -3.944948,-2.72765 -0.414541,-0.91487 -0.430024,-1.0976 -0.449624,-5.30633 l -0.0178,-3.82296 1.097687,2e-5 1.097686,2e-5 0.0292,3.69449 c 0.03173,4.01516 0.03095,4.00667 0.446216,4.82744 0.405534,0.80152 1.224201,1.27207 2.406949,1.38346 1.237021,0.11649 2.417987,-0.46667 2.909566,-1.43675 0.357258,-0.70502 0.379673,-0.99208 0.38099,-4.87921 l 0.0012,-3.58943 1.103094,-5e-5 1.103094,-4e-5 -0.01751,2.03113 c -0.0511,5.92808 -0.05425,6.02772 -0.205927,6.51402 -0.574364,1.84152 -1.917082,2.95472 -3.929868,3.25813 -0.634654,0.0957 -1.525511,0.11947 -2.010013,0.0537 z m 28.960589,0.008 c -1.425568,-0.26546 -1.867251,-0.42929 -2.635841,-0.97775 -0.545864,-0.38952 -0.948779,-0.88109 -1.25956,-1.53671 -0.487416,-1.02825 -0.475725,-0.90302 -0.500181,-5.35788 l -0.02211,-4.02717 1.070733,0.0136 1.070732,0.0137 0.03728,3.76839 c 0.03602,3.64062 0.04249,3.78392 0.190846,4.22635 0.37925,1.13098 1.16061,1.73345 2.463101,1.89915 1.348938,0.17162 2.559799,-0.37844 3.080681,-1.39945 0.334356,-0.65539 0.354249,-0.92563 0.355353,-4.82724 l 10e-4,-3.65947 0.577811,-0.006 c 0.317796,-0.003 0.814188,-0.0112 1.103094,-0.0175 l 0.525282,-0.0115 v 3.88709 c 0,3.80501 -0.0033,3.89966 -0.157233,4.48241 -0.467305,1.76933 -1.541707,2.85851 -3.317123,3.36276 -0.506624,0.14389 -2.141173,0.24969 -2.583905,0.16725 z m 61.655725,-0.0322 c -0.99411,-0.12948 -1.99097,-0.47391 -2.72789,-0.94253 -1.27178,-0.80874 -2.15896,-1.97645 -2.56441,-3.3753 -0.13536,-0.46702 -0.15791,-0.70727 -0.15637,-1.6663 0.002,-1.42362 0.19497,-2.19042 0.81382,-3.23846 0.30196,-0.51139 1.38639,-1.59638 1.89661,-1.89761 2.53582,-1.49709 6.07089,-1.20041 8.12402,0.68182 1.09935,1.00784 1.70767,2.26166 1.87224,3.85892 0.24543,2.38207 -0.85767,4.55421 -2.93823,5.78569 -1.16225,0.68794 -2.80908,0.99055 -4.31979,0.79377 z m 2.04357,-2.0683 c 1.03007,-0.24662 1.94191,-0.9545 2.42781,-1.88474 0.39251,-0.75147 0.50735,-1.21914 0.50735,-2.06611 0,-0.84271 -0.11525,-1.31605 -0.49879,-2.04859 -0.99842,-1.9069 -3.53508,-2.64452 -5.57028,-1.61975 -0.61621,0.31027 -1.41735,1.08319 -1.66072,1.60222 -0.3751,0.79997 -0.43761,1.04086 -0.47253,1.82098 -0.0571,1.27551 0.28005,2.25577 1.05203,3.05873 0.75434,0.78462 1.32413,1.05278 2.70932,1.27506 0.27225,0.0437 1.04199,-0.0267 1.50581,-0.1378 z m 29.80104,2.07494 c -2.77604,-0.3575 -4.85215,-2.17329 -5.36102,-4.6888 -0.15507,-0.76653 -0.10844,-2.25801 0.0932,-2.98288 0.56529,-2.03167 2.05259,-3.48012 4.25223,-4.14115 0.55559,-0.16696 0.77568,-0.19279 1.856,-0.21783 1.06469,-0.0247 1.30749,-0.009 1.8487,0.11844 1.19308,0.28117 2.12986,0.75839 2.84949,1.45158 l 0.32083,0.30904 -0.56596,0.54508 c -0.31128,0.29979 -0.64067,0.61151 -0.73197,0.69271 l -0.16601,0.14763 -0.4078,-0.33937 c -2.23845,-1.86286 -5.86585,-1.11579 -6.87976,1.41689 -0.78901,1.97092 -0.032,4.31146 1.6884,5.22034 0.59754,0.31568 1.01078,0.43295 1.78585,0.5068 0.96548,0.092 1.76428,-0.042 2.622,-0.43977 l 0.29766,-0.13804 v -1.81327 -1.81327 h 1.08559 1.08558 v 2.33406 c 0,2.69083 0.0825,2.39384 -0.80543,2.89775 -1.05986,0.60146 -2.19175,0.91016 -3.51792,0.95945 -0.49195,0.0183 -1.09932,0.007 -1.3497,-0.0254 z m 26.54429,0.0245 c -1.39839,-0.17169 -2.79876,-0.66076 -3.514,-1.22724 -0.33137,-0.26245 -0.33387,-0.24096 0.14758,-1.26939 l 0.35038,-0.74846 0.43255,0.28731 c 1.20458,0.8001 2.78663,1.18937 4.22688,1.04002 1.30294,-0.13511 1.92853,-0.57635 1.92853,-1.36023 0,-0.84666 -0.48884,-1.16311 -2.60954,-1.68927 -2.19697,-0.54509 -3.04398,-0.88944 -3.73008,-1.5165 -0.65854,-0.60187 -0.92488,-1.54656 -0.73843,-2.61913 0.27442,-1.57858 1.48513,-2.57626 3.52242,-2.90266 0.85881,-0.13759 2.51502,-0.055 3.38054,0.16866 0.67735,0.175 2.02831,0.77136 1.97174,0.8704 -0.0453,0.0793 -0.45886,0.98675 -0.6129,1.34481 l -0.14256,0.33141 -0.46807,-0.23708 c -1.39611,-0.70715 -3.22975,-0.92486 -4.32014,-0.51294 -0.77306,0.29204 -1.23963,0.95934 -1.12039,1.60241 0.0665,0.35866 0.58721,0.84211 1.12091,1.0407 0.23084,0.0859 0.82943,0.25339 1.3302,0.3722 1.47095,0.349 2.41788,0.63089 2.94241,0.87594 0.63414,0.29625 1.17601,0.82556 1.46343,1.42951 0.20484,0.43045 0.21665,0.50104 0.21665,1.2957 0,0.80141 -0.0105,0.86258 -0.22564,1.31682 -0.44421,0.93783 -1.36517,1.61425 -2.64591,1.94334 -0.55087,0.14154 -2.28939,0.23944 -2.90656,0.16367 z M 15.276839,184.23263 c -0.02568,-0.0257 -0.04669,-2.65584 -0.04669,-5.8448 v -5.79811 l 1.120701,-0.0209 1.1207,-0.0208 -9.7e-5,4.92015 -9.7e-5,4.92015 h 3.221734 3.221734 v 0.9455 0.94551 h -4.295645 c -2.362605,0 -4.316657,-0.021 -4.342338,-0.0467 z m 26.030068,-0.0516 c 0.02751,-0.0717 3.749815,-5.1017 4.26464,-5.76288 0.0852,-0.10942 0.04847,-0.17117 -0.727393,-1.22291 -0.359379,-0.48716 -0.984345,-1.33726 -1.388813,-1.88911 -0.404468,-0.55185 -1.022973,-1.38901 -1.374456,-1.86035 -0.351482,-0.47133 -0.629977,-0.86615 -0.618877,-0.87737 0.0111,-0.0112 0.595306,-0.005 1.298236,0.0146 l 1.278053,0.035 0.321352,0.42855 c 0.473277,0.63116 2.623703,3.53242 2.686547,3.62456 0.06728,0.0986 -0.02143,0.20949 1.721653,-2.15145 l 1.425416,-1.93068 1.253609,-0.0205 c 0.689486,-0.0113 1.253573,-0.0116 1.253527,-7.6e-4 -4.6e-5,0.0109 -0.930026,1.26159 -2.066622,2.77938 -1.136597,1.5178 -2.084375,2.80611 -2.106174,2.86292 -0.03862,0.10064 0.931288,1.42288 3.387706,4.61837 0.585836,0.7621 1.065157,1.401 1.065157,1.41977 0,0.0188 -0.603018,0.0256 -1.340041,0.0151 l -1.340041,-0.019 -0.883656,-1.19777 c -0.486011,-0.65877 -1.209192,-1.64368 -1.607069,-2.18867 -0.397878,-0.545 -0.744564,-0.98937 -0.770415,-0.98749 -0.02585,0.002 -0.329594,0.40373 -0.674985,0.89298 -0.52616,0.74532 -1.090021,1.51865 -2.397668,3.28835 l -0.168192,0.22762 h -1.264608 c -1.056684,0 -1.258405,-0.0162 -1.226886,-0.0983 z m 30.140168,0.0516 c -0.02568,-0.0257 -0.04669,-2.65735 -0.04669,-5.84815 v -5.80145 l 3.064149,5.3e-4 c 1.751992,3e-4 3.253276,0.0312 3.505799,0.0722 1.325259,0.21506 2.498315,0.93956 3.076461,1.90008 0.624316,1.03722 0.672756,2.84365 0.10669,3.97871 -0.27137,0.54414 -1.061299,1.31476 -1.613373,1.57394 -0.292438,0.13729 -0.427694,0.2383 -0.403504,0.30134 0.02001,0.0521 0.613481,0.90473 1.318816,1.89461 0.705335,0.98989 1.306372,1.8392 1.335637,1.88735 0.04179,0.0688 -0.216612,0.0875 -1.204327,0.0875 H 79.329198 L 78.1995,182.65092 c -0.621333,-0.89561 -1.17219,-1.68414 -1.224126,-1.75228 -0.08625,-0.11317 -0.233275,-0.12227 -1.696596,-0.10506 l -1.602168,0.0188 -0.01873,1.73343 -0.01873,1.73343 h -1.072688 c -0.589978,0 -1.093699,-0.021 -1.11938,-0.0467 z m 6.272277,-5.49153 c 1.068375,-0.35991 1.545907,-1.00841 1.543342,-2.09589 -0.0021,-0.87674 -0.273966,-1.42089 -0.91226,-1.82568 -0.550115,-0.34888 -1.10002,-0.42241 -2.99292,-0.40021 l -1.680905,0.0197 -0.01849,2.22369 -0.01849,2.2237 h 1.824174 c 1.660833,0 1.8628,-0.013 2.255556,-0.14532 z m 11.168821,5.49324 c -0.02662,-0.0266 -0.04871,-0.94926 -0.04908,-2.05031 l -6.74e-4,-2.00191 -0.72211,-1.15562 c -0.39716,-0.6356 -1.283109,-2.05386 -1.968776,-3.1517 -0.685667,-1.09784 -1.431025,-2.28634 -1.656352,-2.64112 -0.225327,-0.35477 -0.387014,-0.65418 -0.359304,-0.66536 0.02771,-0.0112 0.576034,-0.011 1.218497,4.2e-4 l 1.168114,0.0207 0.135679,0.2244 c 0.216258,0.35767 2.41605,3.86853 2.894282,4.61927 0.239249,0.37558 0.453444,0.68158 0.475988,0.68001 0.02254,-0.002 0.179899,-0.23007 0.349677,-0.50778 0.388454,-0.63538 1.108059,-1.7957 1.594493,-2.57102 0.205427,-0.32743 0.633415,-1.01571 0.951089,-1.52951 l 0.57758,-0.93418 1.13811,0.002 c 0.62596,0.001 1.1403,0.0213 1.14298,0.0443 0.004,0.0379 -0.42951,0.73356 -1.44202,2.31191 -0.19769,0.30817 -0.56433,0.89123 -0.81476,1.2957 -0.25043,0.40447 -0.889846,1.43557 -1.420919,2.29134 l -0.965587,1.55594 -0.02772,2.08602 -0.02772,2.08601 -1.071536,0.0192 c -0.589345,0.0106 -1.093317,-0.003 -1.119939,-0.0292 z m 16.760647,-5.79149 c 0,-3.21006 0.013,-5.84961 0.029,-5.86566 0.0159,-0.0161 0.52021,-0.0198 1.12061,-0.008 l 1.09162,0.0209 v 4.89921 4.89922 h 3.22173 3.22174 l -5e-4,0.47275 c -2.8e-4,0.26001 -0.0206,0.68549 -0.0452,0.94551 l -0.0446,0.47275 h -4.29719 -4.29719 z m 28.04207,-0.013 0.008,-5.84948 3.1517,-0.006 c 2.9287,-0.006 3.19932,0.004 3.82489,0.13783 1.2524,0.26784 2.1431,0.71186 2.9512,1.47116 1.22615,1.15212 1.78776,2.62654 1.71144,4.4931 -0.0198,0.48425 -0.0895,1.0789 -0.15604,1.33071 -0.58012,2.19628 -2.31645,3.71746 -4.72455,4.13913 -0.63594,0.11136 -1.14379,0.12907 -3.75505,0.13097 l -3.01965,0.002 z m 6.52154,3.78656 c 1.43759,-0.41329 2.50446,-1.53491 2.80101,-2.94477 0.29943,-1.42359 -0.0706,-2.7292 -1.05425,-3.71957 -0.96987,-0.97652 -1.67079,-1.16073 -4.30645,-1.13182 l -1.71261,0.0188 0.007,1.99607 c 0.004,1.09784 0.0119,2.88941 0.0175,3.98127 l 0.0102,1.9852 1.90852,-0.0322 c 1.52577,-0.0257 1.99281,-0.0564 2.32876,-0.15299 z m 24.21513,-3.80273 0.0179,-5.86566 4.47191,0.019 4.47191,0.019 10e-6,0.89147 1e-5,0.89147 -3.33381,0.0182 -3.3338,0.0182 v 1.50513 1.50513 h 2.9766 2.9766 v 0.90974 0.90973 l -2.99411,0.0183 -2.99411,0.0183 v 1.57585 1.57584 l 3.48437,0.0182 3.48438,0.0182 v 0.90984 0.90983 h -4.62289 -4.62289 z M 53.295638,166.20061 c -2.027513,-0.17302 -4.016528,-0.78916 -5.549954,-1.71921 -2.418064,-1.4666 -4.032299,-3.35049 -4.844406,-5.65367 -0.402912,-1.14268 -0.585807,-2.23695 -0.59234,-3.54402 -0.01316,-2.63222 0.726095,-4.81437 2.290279,-6.76052 0.702277,-0.87376 1.902388,-1.93772 2.743216,-2.43198 0.69306,-0.4074 2.0041,-1.01092 2.707843,-1.24652 3.500348,-1.17185 7.908623,-0.97607 11.019547,0.48939 3.279077,1.54468 5.455124,4.16454 6.25717,7.53333 0.168625,0.70827 0.183537,0.89472 0.18486,2.31125 0.0013,1.34554 -0.01822,1.62579 -0.153701,2.21119 -0.89107,3.85032 -3.590494,6.75147 -7.55349,8.11797 -1.903034,0.6562 -4.143492,0.89466 -6.509024,0.69279 z m 3.426422,-4.48231 c 1.238741,-0.24735 2.234989,-0.72716 3.273978,-1.5768 1.657499,-1.35542 2.556925,-3.54964 2.311716,-5.63961 -0.227451,-1.9386 -1.264186,-3.63514 -2.896119,-4.73927 -0.82019,-0.55492 -2.067737,-1.04161 -3.073677,-1.19909 -0.527877,-0.0826 -2.276478,-0.10927 -2.692132,-0.041 -1.385505,0.22756 -2.202489,0.54174 -3.291772,1.26587 -1.274946,0.84755 -2.219029,2.18692 -2.639302,3.74438 -0.224535,0.83209 -0.224053,2.48967 9.68e-4,3.32679 0.199579,0.74248 0.682636,1.69959 1.182563,2.34307 1.657343,2.13328 4.75337,3.12878 7.823777,2.51567 z m 26.37462,4.49019 c -3.549149,-0.33104 -6.517931,-1.77669 -8.511706,-4.1448 -0.863619,-1.02576 -1.284306,-1.71339 -1.74129,-2.84624 -0.582542,-1.4441 -0.7768,-2.64007 -0.724223,-4.45879 0.03217,-1.11295 0.06214,-1.36058 0.255391,-2.11033 0.491236,-1.90587 1.187215,-3.20982 2.501917,-4.68749 1.387436,-1.55942 3.537886,-2.80876 5.838629,-3.39206 1.584046,-0.4016 1.99649,-0.44966 3.887092,-0.45299 2.215041,-0.004 3.031022,0.10773 4.692526,0.64201 1.02134,0.32843 1.892488,0.74962 2.785519,1.34678 0.749911,0.50145 2.182351,1.78966 2.113651,1.90082 -0.0817,0.13218 -3.330712,3.00812 -3.392745,3.00317 -0.0196,-0.002 -0.240493,-0.19302 -0.490878,-0.42544 -1.017562,-0.94458 -2.230368,-1.58716 -3.639779,-1.92847 -0.971534,-0.23526 -2.633557,-0.26793 -3.608391,-0.0709 -1.658993,0.33528 -3.026495,1.08992 -4.045864,2.23267 -0.84306,0.9451 -1.294998,1.82071 -1.559026,3.02056 -0.182093,0.82749 -0.117777,2.38103 0.133275,3.21923 0.101616,0.33927 0.267111,0.78051 0.367767,0.98053 0.928979,1.84603 2.740976,3.19341 4.928022,3.66442 0.838256,0.18053 2.894889,0.18392 3.64196,0.006 1.622976,-0.38652 2.585444,-0.90177 3.716916,-1.98984 l 0.600238,-0.57721 0.736939,0.6457 c 0.778049,0.68172 2.307816,2.03027 2.542776,2.24157 0.13667,0.1229 0.12438,0.13954 -0.70739,0.95781 -0.932414,0.9173 -1.735313,1.48929 -2.862311,2.03914 -0.942142,0.45966 -2.195401,0.86005 -3.252944,1.03925 -1.005822,0.17044 -3.143046,0.24408 -4.206071,0.14493 z m 91.50426,-0.009 c -0.973,-0.0759 -2.44513,-0.35547 -3.24031,-0.61532 -3.40531,-1.1128 -6.05419,-3.52896 -7.19675,-6.56447 -0.69393,-1.84359 -0.85144,-4.20626 -0.41484,-6.22278 0.3941,-1.82028 1.45696,-3.75248 2.80721,-5.10332 2.47736,-2.47843 6.11124,-3.7401 10.35593,-3.59553 3.07069,0.10459 5.60178,0.87299 7.61165,2.31078 0.5105,0.3652 1.59831,1.32596 1.59831,1.41164 0,0.0365 -0.87436,0.86809 -1.33072,1.26559 -0.21186,0.18453 -0.6969,0.62221 -1.07786,0.97261 -1.00489,0.92429 -0.87193,0.8831 -1.42535,0.44161 -0.98994,-0.78972 -1.7699,-1.22449 -2.80526,-1.56375 -3.29348,-1.07918 -6.80691,-0.44053 -8.86988,1.61231 -0.77069,0.7669 -1.4445,1.93997 -1.69793,2.95597 -0.17782,0.71292 -0.17578,2.68242 0.003,3.35427 0.56302,2.11017 2.27755,3.88031 4.4326,4.57638 1.01457,0.3277 1.53521,0.39551 3.03568,0.39535 1.22881,-1.3e-4 1.55692,-0.0241 2.27622,-0.16661 0.87986,-0.17427 1.59319,-0.40042 2.15366,-0.68276 l 0.33268,-0.16759 v -1.6447 -1.64471 h -1.85722 -1.85722 l 0.0187,-1.73343 0.0187,-1.73344 0.3677,0.003 c 0.20224,0.001 2.1345,0.009 4.29391,0.0175 l 3.92622,0.0148 -0.0131,4.56141 c -0.0126,4.40892 -0.0176,4.56594 -0.14869,4.69704 -0.48693,0.48692 -2.11083,1.35454 -3.4308,1.83299 -2.52127,0.91389 -5.02545,1.23712 -7.86682,1.01544 z M 14.809921,155.17866 v -10.68075 h 2.590835 2.590835 l 0.01807,4.11471 0.01807,4.11472 h 5.743091 5.743092 l 0.01807,-4.11472 0.01807,-4.11471 h 2.590836 2.590835 v 10.68075 10.68075 H 34.14033 31.548935 v -4.4474 -4.44739 h -5.778111 -5.77811 v 4.44739 4.4474 h -2.591395 -2.591395 z m 84.528725,10.45312 c -0.004,-0.12519 -0.014,-4.93152 -0.0229,-10.68074 l -0.0161,-10.45313 h 2.579254 2.57925 v 4.90264 c 0,2.69645 0.0226,4.90264 0.0503,4.90264 0.0277,0 2.24788,-2.20619 4.9338,-4.90264 l 4.88349,-4.90264 h 3.06645 3.06644 l -3.33151,3.3443 c -1.83233,1.83936 -3.94852,3.97301 -4.70264,4.74143 -1.33656,1.36192 -1.36818,1.40084 -1.2544,1.54399 0.0642,0.0808 0.98203,1.18549 2.03961,2.45494 3.42369,4.10953 4.76513,5.73526 6.0076,7.28076 0.30968,0.38521 0.80308,0.99224 1.09645,1.34896 l 0.53339,0.64857 -3.09738,-0.0182 -3.09738,-0.0182 -0.56218,-0.67288 c -0.3092,-0.37008 -0.68825,-0.8245 -0.84233,-1.00982 -0.15408,-0.18532 -0.54955,-0.6547 -0.87881,-1.04305 -0.32927,-0.38835 -1.32249,-1.57282 -2.20716,-2.63214 -0.88467,-1.05932 -1.84318,-2.20269 -2.13003,-2.54082 l -0.52153,-0.61478 -1.08642,1.07003 c -0.59753,0.58851 -1.28427,1.26225 -1.5261,1.49718 l -0.43968,0.42716 v 2.77707 2.77707 h -2.55638 -2.556374 z m 25.150314,-10.45312 v -10.68075 h 2.5914 2.59139 v 10.68075 10.68075 h -2.59139 -2.5914 z m 12.04649,8.7e-4 v -10.68162 h 2.20123 2.20122 l 0.38115,0.40271 c 0.20962,0.2215 0.56642,0.61185 0.79288,0.86744 0.22646,0.2556 1.40555,1.57931 2.6202,2.94159 1.21466,1.36227 3.35406,3.78481 4.75422,5.38342 2.3568,2.69084 3.14072,3.5719 3.17808,3.57194 0.008,1e-5 0.006,-2.96259 -0.005,-6.58354 l -0.0197,-6.58356 h 2.59356 2.59357 v 10.68075 10.68075 l -2.2237,-0.003 -2.2237,-0.003 -2.10113,-2.38579 c -1.15562,-1.31218 -2.49509,-2.83356 -2.9766,-3.38083 -0.48151,-0.54727 -1.45853,-1.6525 -2.17117,-2.45606 -0.71263,-0.80357 -1.86699,-2.10961 -2.56523,-2.90231 -0.69825,-0.7927 -1.4142,-1.59885 -1.59102,-1.79146 l -0.32148,-0.35019 -0.009,3.712 c -0.005,2.0416 -0.0214,5.01995 -0.0365,6.61856 l -0.0275,2.90657 -2.52219,0.0184 -2.52218,0.0184 z M 54.217801,136.74707 c -0.02568,-0.0257 -0.04669,-0.65602 -0.04669,-1.40075 v -1.35407 h 2.661433 2.661432 l -0.0028,-2.88905 -0.0028,-2.88906 -0.319004,0.34676 c -0.175453,0.19072 -0.541759,0.62572 -0.814013,0.96667 -0.396409,0.49643 -0.511708,0.60174 -0.578842,0.52871 -0.106658,-0.11603 -0.632695,-0.70754 -1.60937,-1.8097 -0.423728,-0.47816 -1.102493,-1.23262 -1.508366,-1.67658 -0.405872,-0.44395 -0.862868,-0.94729 -1.015546,-1.11853 -0.152678,-0.17125 -0.46166,-0.51232 -0.686626,-0.75793 -0.363602,-0.39697 -0.398124,-0.45962 -0.310837,-0.56411 0.05401,-0.0647 0.337631,-0.4012 0.630279,-0.74789 0.292647,-0.34669 0.859416,-1.0243 1.259486,-1.50581 1.949873,-2.34679 5.463163,-6.53134 6.174284,-7.35396 0.366162,-0.42357 1.668878,-1.9721 2.180945,-2.59247 0.622466,-0.75412 5.189882,-6.19157 7.879241,-9.38014 0.597072,-0.7079 1.542581,-1.83037 2.101131,-2.49436 0.558551,-0.664002 1.567094,-1.860632 2.241207,-2.659182 0.674113,-0.79856 1.395551,-1.66059 1.603196,-1.91563 0.207646,-0.25505 0.666088,-0.79465 1.018761,-1.19911 0.352672,-0.40447 0.718569,-0.83342 0.813103,-0.95322 0.176028,-0.22307 0.877458,-1.03872 1.311487,-1.52505 l 0.242818,-0.27208 0.219278,0.24416 c 0.364485,0.40586 1.613515,1.87805 3.020787,3.56051 3.565754,4.26304 5.388263,6.369672 5.510576,6.369672 0.295577,0 1.641058,-0.36556 2.472599,-0.67179 0.734354,-0.27044 3.458916,-1.575052 3.713116,-1.777962 0.18008,-0.14375 3.04888,-1.75813 3.92211,-2.20713 2.668364,-1.37201 4.968504,-2.04039 7.283924,-2.11659 2.07495,-0.0683 3.86412,0.33302 6.40845,1.43742 0.89882,0.39014 2.90359,1.40856 3.712,1.88569 3.96954,2.342842 6.67484,3.549172 9.12863,4.070582 l 0.60553,0.12867 0.31055,-0.49701 c 0.61237,-0.98007 0.91616,-1.2385 1.93174,-1.6433 0.60705,-0.24198 1.54331,-0.440232 2.83652,-0.600652 0.86482,-0.10728 2.3265,-0.30497 4.46827,-0.60433 1.15658,-0.16165 2.09376,-0.17109 2.70408,-0.0272 0.91658,0.21606 1.7474,0.81778 2.20986,1.600512 0.52274,0.88474 0.657,1.77617 0.7395,4.91021 0.10391,3.94706 0.31749,6.83529 0.56707,7.66831 0.12146,0.40541 0.33508,0.58433 1.19735,1.00284 1.43687,0.69742 1.98731,1.43338 2.60301,3.4804 0.47057,1.56452 0.97542,4.34124 1.36889,7.52905 0.32178,2.607 0.49577,5.04985 0.74704,10.48814 l 0.0477,1.03306 h -46.78286 c -25.730618,0 -46.803949,-0.021 -46.829629,-0.0467 z m 9.758586,-10.18038 v -7.42556 l 0.268906,-0.2961 c 0.147898,-0.16285 0.894498,-1.0525 1.659112,-1.977 2.196963,-2.65635 3.0615,-3.69595 3.261639,-3.92211 0.373713,-0.42228 2.017024,-2.37111 4.075002,-4.8326 1.159417,-1.38674 2.126712,-2.53711 2.149545,-2.55637 0.02283,-0.0193 0.371418,-0.42899 0.774633,-0.91049 0.403216,-0.48151 0.764636,-0.90926 0.803157,-0.95056 0.03852,-0.0413 0.385207,-0.46427 0.770414,-0.93995 0.385208,-0.47567 1.041884,-1.25311 1.459281,-1.72764 0.61217,-0.69596 0.781545,-0.85066 0.876004,-0.80011 0.177092,0.0948 0.813705,0.78456 1.5905,1.72333 0.832924,1.00661 3.192175,3.87392 3.485219,4.23575 0.0468,0.0578 0.388117,0.46751 0.758493,0.91049 0.743999,0.88987 1.64094,1.993 4.755021,5.84815 1.151291,1.42527 2.350183,2.90657 2.664203,3.29178 0.31402,0.3852 0.93014,1.14709 1.36915,1.69308 l 0.79821,0.99272 0.005,4.26011 c 0.003,2.34307 0.0262,4.48464 0.0518,4.75905 l 0.0465,0.49893 0.82329,-0.39673 c 0.45281,-0.21819 0.87228,-0.4457 0.93215,-0.50557 0.0954,-0.0954 0.10809,-0.50079 0.10268,-3.28845 -0.005,-2.69748 0.008,-3.16373 0.0899,-3.07501 0.0528,0.0575 0.56449,0.67189 1.13705,1.36526 0.84244,1.0202 1.552824,1.85105 2.210604,2.58549 0.0333,0.0372 0.21279,-0.0469 0.42754,-0.20033 0.20356,-0.14546 0.77428,-0.52974 1.26828,-0.85396 0.494,-0.32423 0.88797,-0.61919 0.87547,-0.65548 -0.0244,-0.0709 -2.24375,-2.74888 -3.924174,-4.73507 -1.32541,-1.56658 -2.99566,-3.55929 -3.48751,-4.16083 -0.21187,-0.25911 -0.60842,-0.73524 -0.88124,-1.05806 -0.27282,-0.32283 -1.10671,-1.31185 -1.85309,-2.19783 -0.746384,-0.88598 -1.862639,-2.20537 -2.480571,-2.93197 -0.617931,-0.72661 -1.218063,-1.43994 -1.333625,-1.58518 -0.27364,-0.34392 -2.375517,-2.84654 -4.023178,-4.79024 -0.714828,-0.84326 -1.45666,-1.72574 -1.648515,-1.961062 -0.433556,-0.53177 -1.990544,-2.37408 -3.012554,-3.56462 l -0.768795,-0.89557 -0.141099,0.19403 c -0.07761,0.10672 -0.460085,0.57276 -0.849956,1.03565 -0.389871,0.46288 -1.27391,1.51922 -1.964532,2.34742 -0.690621,0.82819 -1.851961,2.214942 -2.580755,3.081662 -0.728795,0.86671 -2.512358,2.99999 -3.963474,4.74062 -1.451117,1.74063 -2.904568,3.47406 -3.229893,3.85208 -0.325325,0.37801 -1.014279,1.1932 -1.53101,1.81152 -0.51673,0.61833 -1.601366,1.90935 -2.410301,2.86893 -0.808936,0.95958 -1.655815,1.96649 -1.881953,2.23758 -0.226139,0.27108 -0.782202,0.93412 -1.235696,1.47341 -2.919501,3.47184 -4.066133,4.89346 -4.02775,4.99369 0.04172,0.10894 1.524731,1.82402 1.582803,1.83048 0.02223,0.002 0.321605,-0.3343 0.665275,-0.7484 0.584341,-0.70409 1.928066,-2.2848 2.698885,-3.17487 0.186176,-0.21498 0.473333,-0.55662 0.638129,-0.75921 l 0.299628,-0.36834 0.01787,6.51981 0.01787,6.51981 h 0.910129 0.910129 z m 8.754713,6.05983 v -1.36574 h -1.680905 c -0.924498,0 -1.680905,-0.0191 -1.680905,-0.0424 0,-0.0534 0.177726,-0.31638 1.511222,-2.2361 0.594095,-0.85526 1.080173,-1.5779 1.080173,-1.60586 0,-0.028 -0.443504,-0.028 -0.985564,-5e-5 l -0.985564,0.0508 0.210702,-0.34191 c 0.245668,-0.39866 0.752047,-1.1128 1.714735,-2.41826 l 0.689705,-0.93528 -0.707879,-0.035 -0.707878,-0.035 0.444559,-0.66536 c 0.604978,-0.90545 1.19975,-1.90305 1.727958,-2.89826 l 0.441662,-0.83215 0.101376,0.20181 c 0.332556,0.66203 1.524511,2.7088 2.177272,3.73872 l 0.288535,0.45524 -0.628961,0.0201 c -0.345929,0.0111 -0.627847,0.0426 -0.626485,0.07 0.0014,0.0274 0.103792,0.19362 0.227622,0.36928 0.123831,0.17566 0.59753,0.86116 1.052666,1.52332 0.455135,0.66217 0.853965,1.20394 0.886289,1.20394 0.03232,0 0.457,-0.59095 0.943728,-1.31321 l 0.884959,-1.31321 -1.371654,-0.035 -1.371653,-0.035 0.307621,-0.45525 c 0.169192,-0.25038 0.976576,-1.40075 1.794188,-2.55638 l 1.486566,-2.10113 -0.984735,-0.035 -0.984736,-0.035 0.878361,-1.32274 c 0.848862,-1.27832 1.960421,-3.10913 2.52403,-4.15725 0.150038,-0.27901 0.291426,-0.50751 0.314194,-0.50777 0.02277,-2.6e-4 0.1297,0.165 0.237625,0.36723 0.362887,0.67999 1.484021,2.52721 2.476089,4.0797 l 0.984621,1.54083 -0.941867,0.0195 c -0.518026,0.0107 -0.941866,0.0359 -0.941866,0.056 0,0.0504 1.022955,1.5164 2.339962,3.35342 0.606407,0.84584 1.133817,1.5963 1.172022,1.66769 0.06668,0.12459 0.01597,0.12892 -1.2661,0.10799 -0.734559,-0.012 -1.335524,0.005 -1.335478,0.0382 8.3e-5,0.0594 0.688392,1.15565 1.787349,2.84654 1.382343,2.12691 1.72607,2.67333 1.698816,2.70058 -0.01599,0.016 -1.093238,0.006 -2.393876,-0.0225 -1.300639,-0.0284 -2.377876,-0.0385 -2.39386,-0.0224 -0.04272,0.0429 -0.03549,3.4079 0.0074,3.45081 0.02006,0.0201 0.248559,-0.0351 0.507773,-0.12258 0.259214,-0.0875 0.802226,-0.26022 1.206694,-0.38385 2.322747,-0.71002 8.026528,-2.89092 8.012308,-3.06359 -0.004,-0.0468 -0.0119,-2.2361 -0.0178,-4.86514 l -0.0108,-4.78008 -3.090334,-3.85207 c -4.305827,-5.36717 -4.864144,-6.05718 -6.519672,-8.05755 -2.001765,-2.41873 -3.050517,-3.69561 -3.173629,-3.86397 -0.07583,-0.10371 -0.349289,0.2128 -2.581074,2.98739 -0.265284,0.3298 -0.675004,0.82236 -0.91049,1.09456 -0.235486,0.27221 -0.759085,0.90067 -1.163552,1.39659 -0.404468,0.49592 -1.649388,1.99144 -2.76649,3.32337 -1.117101,1.33193 -2.48743,2.97268 -3.045176,3.64612 -0.557745,0.67344 -1.030499,1.24019 -1.050565,1.25945 -0.02007,0.0193 -0.438324,0.51376 -0.929464,1.09889 l -0.89298,1.06387 v 6.97296 6.97295 h 3.011621 3.011621 z m 7.564072,-0.77204 v -2.13777 l -1.470792,0.006 c -1.088969,0.005 -1.470792,0.0279 -1.470792,0.0897 0,0.046 0.20486,0.38989 0.455245,0.76432 0.250385,0.37442 0.455245,0.68982 0.455245,0.70088 0,0.0111 -0.772165,0.008 -1.715923,-0.006 l -1.715924,-0.0265 v 1.37367 1.37366 h 2.73147 2.731471 z m 31.236818,1.97566 c 0.30304,-0.0846 0.65428,-0.26419 1.05056,-0.53718 0.32743,-0.22555 0.95266,-0.62419 1.3894,-0.88585 0.83578,-0.50075 0.89229,-0.55773 2.19675,-2.21533 0.18117,-0.23021 0.34028,-0.42945 0.35359,-0.44276 0.0133,-0.0133 -0.0146,0.3608 -0.062,0.83133 -0.11102,1.10148 -0.11735,2.13642 -0.0149,2.43843 0.13487,0.39764 0.34301,0.63133 0.71771,0.8058 l 0.35716,0.1663 3.1988,6.9e-4 3.19879,6.8e-4 0.32472,-0.3677 c 0.39937,-0.45221 1.01686,-1.35955 1.01686,-1.49416 0,-0.0813 -0.19689,-0.0992 -1.09308,-0.0992 -0.85103,0 -1.08557,-0.0196 -1.05917,-0.0884 0.0186,-0.0486 0.34226,-0.52923 0.71913,-1.06807 1.01695,-1.45401 1.57316,-2.31835 1.86901,-2.90444 0.14546,-0.28818 0.26448,-0.54701 0.26448,-0.57518 0,-0.0282 -0.28205,-0.0603 -0.62679,-0.0714 l -0.6268,-0.0201 0.52853,-0.87547 c 0.29069,-0.48151 0.76435,-1.33235 1.05259,-1.89075 0.28824,-0.55841 0.5302,-1.02141 0.53769,-1.0289 0.007,-0.007 0.10692,0.16573 0.22094,0.38494 0.45518,0.87504 0.98175,1.76851 1.49302,2.53329 0.29563,0.44221 0.54801,0.82829 0.56085,0.85796 0.0128,0.0297 -0.25112,0.0539 -0.58657,0.0539 h -0.60991 l 0.0444,0.22762 c 0.11018,0.56504 1.36151,2.62902 2.33834,3.85691 0.20896,0.26267 0.36676,0.49076 0.35066,0.50686 -0.0161,0.0161 -0.44466,0.0503 -0.95235,0.076 -0.59544,0.0301 -0.92264,0.074 -0.92184,0.12348 0.001,0.0817 0.69293,1.06864 1.09673,1.56506 l 0.24213,0.29766 h 0.48003 0.48004 l 0.55769,-0.78792 c 0.57668,-0.81477 1.83467,-2.74453 1.83467,-2.8144 0,-0.0218 -0.48724,-0.0396 -1.08275,-0.0396 h -1.08274 l 0.41122,-0.61283 c 0.45421,-0.67688 2.31457,-4.00041 2.31457,-4.13497 0,-0.062 -0.24452,-0.0848 -0.91049,-0.0848 -0.50077,0 -0.91049,-0.0177 -0.91049,-0.0393 0,-0.0217 0.30933,-0.46382 0.68739,-0.9826 0.82175,-1.12763 1.82182,-2.77983 2.33599,-3.85928 0.2054,-0.43121 0.3899,-0.78578 0.41001,-0.78792 0.0201,-0.002 0.20129,0.32733 0.40263,0.73217 0.49376,0.9928 1.57519,2.79957 2.37859,3.97396 l 0.65881,0.96302 h -0.88033 c -0.5545,0 -0.88034,0.0266 -0.88034,0.0718 0,0.24789 1.01255,2.00137 2.01003,3.48089 0.40254,0.59706 0.74867,1.1293 0.76918,1.18274 0.0308,0.0803 -0.15233,0.0972 -1.05579,0.0972 -0.65549,0 -1.09308,0.0271 -1.09308,0.0676 0,0.0837 1.18828,1.88838 1.8809,2.8565 l 0.51359,0.71788 h 2.31025 2.31026 l -0.0423,-0.68286 c -0.0233,-0.37558 -0.0896,-1.45504 -0.14742,-2.3988 -0.21418,-3.49701 -0.67363,-7.47945 -1.12314,-9.73524 -0.17685,-0.88752 -0.66542,-2.81223 -0.81744,-3.22032 -0.30828,-0.82759 -0.58914,-1.07468 -1.7498,-1.53942 -0.5196,-0.20805 -0.54953,-0.2122 -0.72076,-0.10001 -0.34906,0.22871 -0.72611,1.15303 -0.94979,2.32831 -0.0517,0.27144 -0.10524,0.40809 -0.13731,0.35019 -0.10774,-0.19454 -0.2754,-2.26147 -0.34574,-4.26222 -0.0399,-1.13636 -0.11796,-3.07465 -0.17336,-4.30731 -0.13251,-2.94865 -0.16703,-3.84777 -0.2138,-5.568 -0.0513,-1.88624 -0.12305,-2.34445 -0.41256,-2.63396 -0.36736,-0.36735 -0.79532,-0.42296 -2.1591,-0.28052 -1.47549,0.15411 -4.97012,0.65813 -5.03325,0.72593 -0.0268,0.0288 -0.13223,0.63546 -0.23423,1.3481 -0.10201,0.71263 -0.24531,1.65814 -0.31846,2.10113 -0.28173,1.70622 -0.41454,2.93045 -0.52805,4.86762 -0.0516,0.8807 -0.18911,1.70261 -0.46028,2.7512 -0.23497,0.90861 -0.80616,2.32653 -0.93721,2.32653 -0.0646,0 -0.0768,-0.88323 -0.0527,-3.83456 0.029,-3.55616 0.009,-4.38724 -0.17305,-7.18218 -0.0214,-0.32929 -0.0642,-0.53656 -0.10772,-0.52206 -0.0397,0.0132 -0.30444,0.4796 -0.58833,1.03637 -0.57785,1.13327 -0.57069,1.10231 -0.76048,3.28855 -0.10774,1.2411 -0.33196,4.08322 -0.45861,5.81313 -0.19759,2.69885 -0.35216,3.45942 -1.02154,5.02659 -0.44496,1.04176 -1.07527,1.97718 -1.33228,1.97718 -0.11724,0 -0.11708,-0.0185 0.0154,-1.78546 0.23704,-3.16172 0.31554,-9.34138 0.13465,-10.60051 -0.0517,-0.36006 -0.10498,-0.66559 -0.11835,-0.67896 -0.0559,-0.0559 -1.4032,0.32433 -1.72233,0.48604 -0.69568,0.35253 -1.15555,1.08465 -1.50024,2.3884 -0.53185,2.01166 -0.79309,3.01468 -1.24043,4.76257 -1.40477,5.48882 -1.85153,6.70714 -3.10043,8.45482 -0.48654,0.68086 -1.37479,1.58337 -1.7486,1.77667 -0.24734,0.1279 -0.24706,0.0861 0.003,-0.46906 0.51462,-1.14203 1.31592,-3.82085 1.18275,-3.95402 -0.0157,-0.0157 -0.34154,0.0994 -0.724,0.25592 -0.88953,0.36397 -2.12063,0.72298 -4.0572,1.18315 -2.62532,0.62383 -3.86966,1.05356 -5.10951,1.76456 -0.34847,0.19983 -1.47659,0.93281 -2.50693,1.62885 -2.25014,1.52004 -3.44517,2.30023 -4.289974,2.80073 -1.75073,1.03722 -5.20826,2.57657 -8.876698,3.95205 -0.375261,0.1407 -0.682552,0.27995 -0.682868,0.30944 -3.16e-4,0.0295 4.829396,0.0452 10.73271,0.035 10.1209,-0.0175 10.75925,-0.0259 11.18852,-0.14569 z m -34.865219,-5.94577 c 0.142281,-0.23748 0.242851,-0.45741 0.22349,-0.48874 -0.03929,-0.0636 -1.217578,-0.08 -1.217578,-0.017 0,0.0684 0.640005,0.94064 0.689016,0.93902 0.02551,-8.4e-4 0.162792,-0.19582 0.305072,-0.4333 z M 115.46375,119.029 c 0.21717,-0.12953 0.44639,-0.31418 0.50938,-0.41031 0.14995,-0.22885 0.48441,-1.38474 1.1956,-4.13194 1.28987,-4.9825 1.52243,-5.66575 2.23171,-6.55653 0.41845,-0.52553 1.41625,-1.26325 2.10941,-1.55957 0.52292,-0.22356 1.73019,-0.53022 2.50588,-0.63654 0.30136,-0.0413 0.34929,-0.0747 0.51628,-0.35964 0.10125,-0.17276 0.17238,-0.32426 0.15807,-0.33665 -0.0143,-0.0124 -0.37331,-0.12061 -0.79777,-0.24047 -2.51522,-0.71028 -4.71138,-1.73445 -8.98185,-4.18864 -2.63614,-1.514962 -4.722,-2.354782 -6.9459,-2.796572 -0.90275,-0.17934 -2.42419,-0.10662 -3.57642,0.17095 -2.10556,0.50722 -4.26081,1.46092 -7.038794,3.114662 -1.8519,1.10245 -4.685432,2.43858 -6.040746,2.84848 -0.279275,0.0845 -0.507773,0.17711 -0.507773,0.20589 0,0.0288 0.149705,0.22549 0.332679,0.43715 0.182973,0.21166 0.978777,1.15106 1.76845,2.08756 2.88973,3.427 3.45854,4.09862 3.50024,4.13294 0.0234,0.0193 0.2443,0.2714 0.49087,0.5603 0.24657,0.28891 0.45741,0.52529 0.46853,0.52529 0.02,0 0.20341,-0.26657 1.79483,-2.60891 l 0.82084,-1.20815 h -0.77117 c -0.42414,0 -0.77116,-0.0167 -0.77116,-0.0371 0,-0.0204 0.20909,-0.35919 0.46466,-0.7529 0.80136,-1.23458 1.536434,-2.43816 1.977064,-3.23721 0.23366,-0.42372 0.4516,-0.8154 0.48429,-0.87039 0.0433,-0.0728 0.14636,0.0606 0.37881,0.49026 0.43519,0.80432 1.54237,2.64549 1.97645,3.2867 0.19558,0.28891 0.44269,0.66056 0.54912,0.8259 l 0.19352,0.30062 -0.73183,-0.0185 c -0.4025,-0.0102 -0.75281,0.002 -0.77846,0.0281 -0.0256,0.0256 0.18805,0.38722 0.47489,0.8035 0.28684,0.41627 0.92065,1.33608 1.40847,2.04401 0.48782,0.70793 0.88698,1.30675 0.88703,1.33071 6e-5,0.024 -0.50422,0.0335 -1.1206,0.0212 -0.61638,-0.0123 -1.1207,0.001 -1.1207,0.0295 0,0.0285 0.0507,0.10786 0.11269,0.17635 0.23717,0.26207 2.4413,3.87604 3.22921,5.29472 0.45394,0.81735 0.84436,1.48709 0.8676,1.4883 0.048,0.003 0.5253,-0.70338 1.12899,-1.66979 l 0.41007,-0.65646 -1.02616,0.0513 -1.02616,0.0513 0.30346,-0.41039 c 0.16691,-0.22572 0.77047,-1.07225 1.34124,-1.88119 l 1.03778,-1.47079 -0.70302,-0.02 c -0.38666,-0.011 -0.70302,-0.0463 -0.70302,-0.0785 0,-0.0322 0.19756,-0.33838 0.43901,-0.68042 0.6203,-0.87869 1.33362,-2.03617 1.97436,-3.20373 l 0.26381,-0.48071 0.46868,0.8309 c 0.67186,1.19108 1.07587,1.85024 1.64686,2.68689 0.27604,0.40447 0.52705,0.7767 0.55779,0.82719 0.0447,0.0734 -0.0755,0.09 -0.5987,0.0831 -0.36003,-0.005 -0.6792,-0.007 -0.70927,-0.004 -0.0654,0.005 0.35755,0.63808 1.60916,2.40723 0.51251,0.72444 0.93186,1.32326 0.93189,1.33071 2e-5,0.007 -0.44397,0.003 -0.98666,-0.0108 l -0.98671,-0.0244 0.0875,0.16444 c 0.14108,0.26511 1.05002,1.74911 1.26646,2.06772 l 0.19864,0.29242 0.22786,-0.10972 c 0.12533,-0.0603 0.40556,-0.2157 0.62273,-0.34524 z m -16.459844,-6.20584 0.32383,-0.50758 -0.77086,-0.0199 c -0.42398,-0.0109 -0.78741,-0.003 -0.80764,0.0169 -0.059,0.059 0.78231,1.01444 0.89581,1.01728 0.0193,4.9e-4 0.18075,-0.22753 0.35886,-0.5067 z"
       id="path1" /></g></svg>
